<?xml version="1.0" encoding="utf-8" standalone="no"?>
<!DOCTYPE svg PUBLIC "-//W3C//DTD SVG 1.1//EN"
  "http://www.w3.org/Graphics/SVG/1.1/DTD/svg11.dtd">
<svg xmlns:xlink="http://www.w3.org/1999/xlink" width="576pt" height="504pt" viewBox="0 0 576 504" xmlns="http://www.w3.org/2000/svg" version="1.1">
 <metadata>
  <rdf:RDF xmlns:dc="http://purl.org/dc/elements/1.1/" xmlns:cc="http://creativecommons.org/ns#" xmlns:rdf="http://www.w3.org/1999/02/22-rdf-syntax-ns#">
   <cc:Work>
    <dc:type rdf:resource="http://purl.org/dc/dcmitype/StillImage"/>
    <dc:date>2025-12-03T07:11:17.400582</dc:date>
    <dc:format>image/svg+xml</dc:format>
    <dc:creator>
     <cc:Agent>
      <dc:title>Matplotlib v3.10.7, https://matplotlib.org/</dc:title>
     </cc:Agent>
    </dc:creator>
   </cc:Work>
  </rdf:RDF>
 </metadata>
 <defs>
  <style type="text/css">*{stroke-linejoin: round; stroke-linecap: butt}</style>
 </defs>
 <g id="figure_1">
  <g id="patch_1">
   <path d="M 0 504 
L 576 504 
L 576 0 
L 0 0 
L 0 504 
z
" style="fill: none"/>
  </g>
  <g id="axes_1">
   <g id="patch_2">
    <path d="M -39.6 452.961794 
L -47.048328 452.641064 
L -54.501215 452.030158 
L -61.961044 450.761488 
L -69.330765 449.201815 
L -76.890031 446.887567 
L -84.348037 444.231765 
L -91.406216 440.971893 
L -98.271592 437.423071 
L -103.709484 433.976357 
L -109.047737 430.362174 
L -114.093268 426.274348 
L -118.979042 422.051381 
L -123.231595 417.679152 
L -127.365889 413.183695 
L -131.023547 408.437217 
L -134.53263 403.617485 
L -138.36209 397.367265 
L -141.718846 390.885157 
L -144.586832 384.202186 
L -146.952321 377.350339 
L -148.803991 370.362411 
L -150.132979 363.271849 
L -150.932925 356.112589 
L -151.2 348.918898 
L -150.932925 341.725207 
L -150.132979 334.565948 
L -148.803991 327.475385 
L -146.952321 320.487457 
L -144.586832 313.635611 
L -141.718846 306.95264 
L -138.36209 300.470532 
L -134.53263 294.220311 
L -131.023547 289.40058 
L -127.365889 284.654101 
L -123.231595 280.158645 
L -118.979042 275.786416 
L -114.093268 271.563449 
L -109.047737 267.475622 
L -103.709484 263.86144 
L -98.271592 260.414725 
L -91.406216 256.865904 
L -84.348037 253.606031 
L -76.890031 250.950229 
L -69.330765 248.635982 
L -61.961044 247.076308 
L -54.501215 245.807639 
L -47.048328 245.196732 
L -39.6 244.876003 
L -32.151672 245.196732 
L -24.698785 245.807639 
L -17.238956 247.076308 
L -9.869235 248.635982 
L -2.309969 250.950229 
L 5.148037 253.606031 
L 12.206216 256.865904 
L 19.071592 260.414725 
L 24.509484 263.86144 
L 29.847737 267.475622 
L 34.893268 271.563449 
L 39.779042 275.786416 
L 44.031595 280.158645 
L 48.165889 284.654101 
L 51.823547 289.40058 
L 55.33263 294.220311 
L 59.16209 300.470532 
L 62.518846 306.95264 
L 65.386832 313.635611 
L 67.752321 320.487457 
L 69.603991 327.475385 
L 70.932979 334.565948 
L 71.732925 341.725207 
L 72 348.918898 
L 72.267075 341.725207 
L 73.067021 334.565948 
L 74.396009 327.475385 
L 76.247679 320.487457 
L 78.613168 313.635611 
L 81.481154 306.95264 
L 84.83791 300.470532 
L 88.66737 294.220311 
L 92.176453 289.40058 
L 95.834111 284.654101 
L 99.968405 280.158645 
L 104.220958 275.786416 
L 109.106732 271.563449 
L 114.152263 267.475622 
L 119.490516 263.86144 
L 124.928408 260.414725 
L 131.793784 256.865904 
L 138.851963 253.606031 
L 146.309969 250.950229 
L 153.869235 248.635982 
L 161.238956 247.076308 
L 168.698785 245.807639 
L 176.151672 245.196732 
L 183.6 244.876003 
L 191.048328 245.196732 
L 198.501215 245.807639 
L 205.961044 247.076308 
L 213.330765 248.635982 
L 220.890031 250.950229 
L 228.348037 253.606031 
L 235.406216 256.865904 
L 242.271592 260.414725 
L 247.709484 263.86144 
L 253.047737 267.475622 
L 258.093268 271.563449 
L 262.979042 275.786416 
L 267.231595 280.158645 
L 271.365889 284.654101 
L 275.023547 289.40058 
L 278.53263 294.220311 
L 282.36209 300.470532 
L 285.718846 306.95264 
L 288.586832 313.635611 
L 290.952321 320.487457 
L 292.803991 327.475385 
L 294.132979 334.565948 
L 294.932925 341.725207 
L 295.2 348.918898 
L 295.467075 341.725207 
L 296.267021 334.565948 
L 297.596009 327.475385 
L 299.447679 320.487457 
L 301.813168 313.635611 
L 304.681154 306.95264 
L 308.03791 300.470532 
L 311.86737 294.220311 
L 315.376453 289.40058 
L 319.034111 284.654101 
L 323.168405 280.158645 
L 327.420958 275.786416 
L 332.306732 271.563449 
L 337.352263 267.475622 
L 342.690516 263.86144 
L 348.128408 260.414725 
L 354.993784 256.865904 
L 362.051963 253.606031 
L 369.509969 250.950229 
L 377.069235 248.635982 
L 384.438956 247.076308 
L 391.898785 245.807639 
L 399.351672 245.196732 
L 406.8 244.876003 
L 414.248328 245.196732 
L 421.701215 245.807639 
L 429.161044 247.076308 
L 436.530765 248.635982 
L 444.090031 250.950229 
L 451.548037 253.606031 
L 458.606216 256.865904 
L 465.471592 260.414725 
L 470.909484 263.86144 
L 476.247737 267.475622 
L 481.293268 271.563449 
L 486.179042 275.786416 
L 490.431595 280.158645 
L 494.565889 284.654101 
L 498.223547 289.40058 
L 501.73263 294.220311 
L 505.56209 300.470532 
L 508.918846 306.95264 
L 511.786832 313.635611 
L 514.152321 320.487457 
L 516.003991 327.475385 
L 517.332979 334.565948 
L 518.132925 341.725207 
L 518.4 348.918898 
L 518.667075 341.725207 
L 519.467021 334.565948 
L 520.796009 327.475385 
L 522.647679 320.487457 
L 525.013168 313.635611 
L 527.881154 306.95264 
L 531.23791 300.470532 
L 535.06737 294.220311 
L 538.576453 289.40058 
L 542.234111 284.654101 
L 546.368405 280.158645 
L 550.620958 275.786416 
L 555.506732 271.563449 
L 560.552263 267.475622 
L 565.890516 263.86144 
L 571.328408 260.414725 
L 578.193784 256.865904 
L 585.251963 253.606031 
L 592.709969 250.950229 
L 600.269235 248.635982 
L 607.638956 247.076308 
L 615.098785 245.807639 
L 622.551672 245.196732 
L 630 244.876003 
L 637.448328 245.196732 
L 644.901215 245.807639 
L 652.361044 247.076308 
L 659.730765 248.635982 
L 667.290031 250.950229 
L 674.748037 253.606031 
L 681.806216 256.865904 
L 688.671592 260.414725 
L 694.109484 263.86144 
L 699.447737 267.475622 
L 704.493268 271.563449 
L 709.379042 275.786416 
L 713.631595 280.158645 
L 717.765889 284.654101 
L 721.423547 289.40058 
L 724.93263 294.220311 
L 728.76209 300.470532 
L 732.118846 306.95264 
L 734.986832 313.635611 
L 737.352321 320.487457 
L 739.203991 327.475385 
L 740.532979 334.565948 
L 741.332925 341.725207 
L 741.6 348.918898 
L 741.332925 356.112589 
L 740.532979 363.271849 
L 739.203991 370.362411 
L 737.352321 377.350339 
L 734.986832 384.202186 
L 732.118846 390.885157 
L 728.76209 397.367265 
L 724.93263 403.617485 
L 721.423547 408.437217 
L 717.765889 413.183695 
L 713.631595 417.679152 
L 709.379042 422.051381 
L 704.493268 426.274348 
L 699.447737 430.362174 
L 694.109484 433.976357 
L 688.671592 437.423071 
L 681.806216 440.971893 
L 674.748037 444.231765 
L 667.290031 446.887567 
L 659.730765 449.201815 
L 652.361044 450.761488 
L 644.901215 452.030158 
L 637.448328 452.641064 
L 630 452.961794 
L 622.551672 452.641064 
L 615.098785 452.030158 
L 607.638956 450.761488 
L 600.269235 449.201815 
L 592.709969 446.887567 
L 585.251963 444.231765 
L 578.193784 440.971893 
L 571.328408 437.423071 
L 565.890516 433.976357 
L 560.552263 430.362174 
L 555.506732 426.274348 
L 550.620958 422.051381 
L 546.368405 417.679152 
L 542.234111 413.183695 
L 538.576453 408.437217 
L 535.06737 403.617485 
L 531.23791 397.367265 
L 527.881154 390.885157 
L 525.013168 384.202186 
L 522.647679 377.350339 
L 520.796009 370.362411 
L 519.467021 363.271849 
L 518.667075 356.112589 
" clip-path="url(#p4561f500d8)" style="fill: #d3d3d3; opacity: 0.4"/>
   </g>
   <g id="patch_3">
    <path d="M 518.132925 356.112589 
L 517.332979 363.271849 
L 516.003991 370.362411 
L 514.152321 377.350339 
L 511.786832 384.202186 
L 508.918846 390.885157 
L 505.56209 397.367265 
L 501.73263 403.617485 
L 498.223547 408.437217 
L 494.565889 413.183695 
L 490.431595 417.679152 
L 486.179042 422.051381 
L 481.293268 426.274348 
L 476.247737 430.362174 
L 470.909484 433.976357 
L 465.471592 437.423071 
L 458.606216 440.971893 
L 451.548037 444.231765 
L 444.090031 446.887567 
L 436.530765 449.201815 
L 429.161044 450.761488 
L 421.701215 452.030158 
L 414.248328 452.641064 
L 406.8 452.961794 
L 399.351672 452.641064 
L 391.898785 452.030158 
L 384.438956 450.761488 
L 377.069235 449.201815 
L 369.509969 446.887567 
L 362.051963 444.231765 
L 354.993784 440.971893 
L 348.128408 437.423071 
L 342.690516 433.976357 
L 337.352263 430.362174 
L 332.306732 426.274348 
L 327.420958 422.051381 
L 323.168405 417.679152 
L 319.034111 413.183695 
L 315.376453 408.437217 
L 311.86737 403.617485 
L 308.03791 397.367265 
L 304.681154 390.885157 
L 301.813168 384.202186 
L 299.447679 377.350339 
L 297.596009 370.362411 
L 296.267021 363.271849 
L 295.467075 356.112589 
" clip-path="url(#p4561f500d8)" style="fill: #d3d3d3; opacity: 0.4"/>
   </g>
   <g id="patch_4">
    <path d="M 294.932925 356.112589 
L 294.132979 363.271849 
L 292.803991 370.362411 
L 290.952321 377.350339 
L 288.586832 384.202186 
L 285.718846 390.885157 
L 282.36209 397.367265 
L 278.53263 403.617485 
L 275.023547 408.437217 
L 271.365889 413.183695 
L 267.231595 417.679152 
L 262.979042 422.051381 
L 258.093268 426.274348 
L 253.047737 430.362174 
L 247.709484 433.976357 
L 242.271592 437.423071 
L 235.406216 440.971893 
L 228.348037 444.231765 
L 220.890031 446.887567 
L 213.330765 449.201815 
L 205.961044 450.761488 
L 198.501215 452.030158 
L 191.048328 452.641064 
L 183.6 452.961794 
L 176.151672 452.641064 
L 168.698785 452.030158 
L 161.238956 450.761488 
L 153.869235 449.201815 
L 146.309969 446.887567 
L 138.851963 444.231765 
L 131.793784 440.971893 
L 124.928408 437.423071 
L 119.490516 433.976357 
L 114.152263 430.362174 
L 109.106732 426.274348 
L 104.220958 422.051381 
L 99.968405 417.679152 
L 95.834111 413.183695 
L 92.176453 408.437217 
L 88.66737 403.617485 
L 84.83791 397.367265 
L 81.481154 390.885157 
L 78.613168 384.202186 
L 76.247679 377.350339 
L 74.396009 370.362411 
L 73.067021 363.271849 
L 72.267075 356.112589 
" clip-path="url(#p4561f500d8)" style="fill: #d3d3d3; opacity: 0.4"/>
   </g>
   <g id="patch_5">
    <path d="M 71.732925 356.112589 
L 70.932979 363.271849 
L 69.603991 370.362411 
L 67.752321 377.350339 
L 65.386832 384.202186 
L 62.518846 390.885157 
L 59.16209 397.367265 
L 55.33263 403.617485 
L 51.823547 408.437217 
L 48.165889 413.183695 
L 44.031595 417.679152 
L 39.779042 422.051381 
L 34.893268 426.274348 
L 29.847737 430.362174 
L 24.509484 433.976357 
L 19.071592 437.423071 
L 12.206216 440.971893 
L 5.148037 444.231765 
L -2.309969 446.887567 
L -9.869235 449.201815 
L -17.238956 450.761488 
L -24.698785 452.030158 
L -32.151672 452.641064 
" clip-path="url(#p4561f500d8)" style="fill: #d3d3d3; opacity: 0.4"/>
   </g>
   <g id="patch_6">
    <path d="M 72 272.754213 
L 64.551672 272.433483 
L 57.098785 271.822577 
L 49.638956 270.553907 
L 42.269235 268.994234 
L 34.709969 266.679986 
L 27.251963 264.024184 
L 20.193784 260.764312 
L 13.328408 257.21549 
L 7.890516 253.768776 
L 2.552263 250.154593 
L -2.493268 246.066767 
L -7.379042 241.8438 
L -11.631595 237.471571 
L -15.765889 232.976114 
L -19.423547 228.229636 
L -22.93263 223.409904 
L -26.76209 217.159684 
L -30.118846 210.677575 
L -32.986832 203.994605 
L -35.352321 197.142758 
L -37.203991 190.15483 
L -38.532979 183.064268 
L -39.332925 175.905008 
L -39.6 168.711317 
L -39.332925 161.517626 
L -38.532979 154.358366 
L -37.203991 147.267804 
L -35.352321 140.279876 
L -32.986832 133.42803 
L -30.118846 126.745059 
L -26.76209 120.262951 
L -22.93263 114.01273 
L -19.423547 109.192999 
L -15.765889 104.44652 
L -11.631595 99.951064 
L -7.379042 95.578834 
L -2.493268 91.355868 
L 2.552263 87.268041 
L 7.890516 83.653859 
L 13.328408 80.207144 
L 20.193784 76.658323 
L 27.251963 73.39845 
L 34.709969 70.742648 
L 42.269235 68.4284 
L 49.638956 66.868727 
L 57.098785 65.600058 
L 64.551672 64.989151 
L 72 64.668422 
L 79.448328 64.989151 
L 86.901215 65.600058 
L 94.361044 66.868727 
L 101.730765 68.4284 
L 109.290031 70.742648 
L 116.748037 73.39845 
L 123.806216 76.658323 
L 130.671592 80.207144 
L 136.109484 83.653859 
L 141.447737 87.268041 
L 146.493268 91.355868 
L 151.379042 95.578834 
L 155.631595 99.951064 
L 159.765889 104.44652 
L 163.423547 109.192999 
L 166.93263 114.01273 
L 170.76209 120.262951 
L 174.118846 126.745059 
L 176.986832 133.42803 
L 179.352321 140.279876 
L 181.203991 147.267804 
L 182.532979 154.358366 
L 183.332925 161.517626 
L 183.6 168.711317 
L 183.867075 161.517626 
L 184.667021 154.358366 
L 185.996009 147.267804 
L 187.847679 140.279876 
L 190.213168 133.42803 
L 193.081154 126.745059 
L 196.43791 120.262951 
L 200.26737 114.01273 
L 203.776453 109.192999 
L 207.434111 104.44652 
L 211.568405 99.951064 
L 215.820958 95.578834 
L 220.706732 91.355868 
L 225.752263 87.268041 
L 231.090516 83.653859 
L 236.528408 80.207144 
L 243.393784 76.658323 
L 250.451963 73.39845 
L 257.909969 70.742648 
L 265.469235 68.4284 
L 272.838956 66.868727 
L 280.298785 65.600058 
L 287.751672 64.989151 
L 295.2 64.668422 
L 302.648328 64.989151 
L 310.101215 65.600058 
L 317.561044 66.868727 
L 324.930765 68.4284 
L 332.490031 70.742648 
L 339.948037 73.39845 
L 347.006216 76.658323 
L 353.871592 80.207144 
L 359.309484 83.653859 
L 364.647737 87.268041 
L 369.693268 91.355868 
L 374.579042 95.578834 
L 378.831595 99.951064 
L 382.965889 104.44652 
L 386.623547 109.192999 
L 390.13263 114.01273 
L 393.96209 120.262951 
L 397.318846 126.745059 
L 400.186832 133.42803 
L 402.552321 140.279876 
L 404.403991 147.267804 
L 405.732979 154.358366 
L 406.532925 161.517626 
L 406.8 168.711317 
L 407.067075 161.517626 
L 407.867021 154.358366 
L 409.196009 147.267804 
L 411.047679 140.279876 
L 413.413168 133.42803 
L 416.281154 126.745059 
L 419.63791 120.262951 
L 423.46737 114.01273 
L 426.976453 109.192999 
L 430.634111 104.44652 
L 434.768405 99.951064 
L 439.020958 95.578834 
L 443.906732 91.355868 
L 448.952263 87.268041 
L 454.290516 83.653859 
L 459.728408 80.207144 
L 466.593784 76.658323 
L 473.651963 73.39845 
L 481.109969 70.742648 
L 488.669235 68.4284 
L 496.038956 66.868727 
L 503.498785 65.600058 
L 510.951672 64.989151 
L 518.4 64.668422 
L 525.848328 64.989151 
L 533.301215 65.600058 
L 540.761044 66.868727 
L 548.130765 68.4284 
L 555.690031 70.742648 
L 563.148037 73.39845 
L 570.206216 76.658323 
L 577.071592 80.207144 
L 582.509484 83.653859 
L 587.847737 87.268041 
L 592.893268 91.355868 
L 597.779042 95.578834 
L 602.031595 99.951064 
L 606.165889 104.44652 
L 609.823547 109.192999 
L 613.33263 114.01273 
L 617.16209 120.262951 
L 620.518846 126.745059 
L 623.386832 133.42803 
L 625.752321 140.279876 
L 627.603991 147.267804 
L 628.932979 154.358366 
L 629.732925 161.517626 
L 630 168.711317 
L 629.732925 175.905008 
L 628.932979 183.064268 
L 627.603991 190.15483 
L 625.752321 197.142758 
L 623.386832 203.994605 
L 620.518846 210.677575 
L 617.16209 217.159684 
L 613.33263 223.409904 
L 609.823547 228.229636 
L 606.165889 232.976114 
L 602.031595 237.471571 
L 597.779042 241.8438 
L 592.893268 246.066767 
L 587.847737 250.154593 
L 582.509484 253.768776 
L 577.071592 257.21549 
L 570.206216 260.764312 
L 563.148037 264.024184 
L 555.690031 266.679986 
L 548.130765 268.994234 
L 540.761044 270.553907 
L 533.301215 271.822577 
L 525.848328 272.433483 
L 518.4 272.754213 
L 510.951672 272.433483 
L 503.498785 271.822577 
L 496.038956 270.553907 
L 488.669235 268.994234 
L 481.109969 266.679986 
L 473.651963 264.024184 
L 466.593784 260.764312 
L 459.728408 257.21549 
L 454.290516 253.768776 
L 448.952263 250.154593 
L 443.906732 246.066767 
L 439.020958 241.8438 
L 434.768405 237.471571 
L 430.634111 232.976114 
L 426.976453 228.229636 
L 423.46737 223.409904 
L 419.63791 217.159684 
L 416.281154 210.677575 
L 413.413168 203.994605 
L 411.047679 197.142758 
L 409.196009 190.15483 
L 407.867021 183.064268 
L 407.067075 175.905008 
" clip-path="url(#p4561f500d8)" style="fill: #d3d3d3; opacity: 0.4"/>
   </g>
   <g id="patch_7">
    <path d="M 406.532925 175.905008 
L 405.732979 183.064268 
L 404.403991 190.15483 
L 402.552321 197.142758 
L 400.186832 203.994605 
L 397.318846 210.677575 
L 393.96209 217.159684 
L 390.13263 223.409904 
L 386.623547 228.229636 
L 382.965889 232.976114 
L 378.831595 237.471571 
L 374.579042 241.8438 
L 369.693268 246.066767 
L 364.647737 250.154593 
L 359.309484 253.768776 
L 353.871592 257.21549 
L 347.006216 260.764312 
L 339.948037 264.024184 
L 332.490031 266.679986 
L 324.930765 268.994234 
L 317.561044 270.553907 
L 310.101215 271.822577 
L 302.648328 272.433483 
L 295.2 272.754213 
L 287.751672 272.433483 
L 280.298785 271.822577 
L 272.838956 270.553907 
L 265.469235 268.994234 
L 257.909969 266.679986 
L 250.451963 264.024184 
L 243.393784 260.764312 
L 236.528408 257.21549 
L 231.090516 253.768776 
L 225.752263 250.154593 
L 220.706732 246.066767 
L 215.820958 241.8438 
L 211.568405 237.471571 
L 207.434111 232.976114 
L 203.776453 228.229636 
L 200.26737 223.409904 
L 196.43791 217.159684 
L 193.081154 210.677575 
L 190.213168 203.994605 
L 187.847679 197.142758 
L 185.996009 190.15483 
L 184.667021 183.064268 
L 183.867075 175.905008 
" clip-path="url(#p4561f500d8)" style="fill: #d3d3d3; opacity: 0.4"/>
   </g>
   <g id="patch_8">
    <path d="M 183.332925 175.905008 
L 182.532979 183.064268 
L 181.203991 190.15483 
L 179.352321 197.142758 
L 176.986832 203.994605 
L 174.118846 210.677575 
L 170.76209 217.159684 
L 166.93263 223.409904 
L 163.423547 228.229636 
L 159.765889 232.976114 
L 155.631595 237.471571 
L 151.379042 241.8438 
L 146.493268 246.066767 
L 141.447737 250.154593 
L 136.109484 253.768776 
L 130.671592 257.21549 
L 123.806216 260.764312 
L 116.748037 264.024184 
L 109.290031 266.679986 
L 101.730765 268.994234 
L 94.361044 270.553907 
L 86.901215 271.822577 
L 79.448328 272.433483 
" clip-path="url(#p4561f500d8)" style="fill: #d3d3d3; opacity: 0.4"/>
   </g>
   <g id="patch_9">
    <path d="M -39.6 452.961794 
L -32.151672 452.641064 
" clip-path="url(#p4561f500d8)" style="fill: #d3d3d3; opacity: 0.4"/>
   </g>
   <g id="patch_10">
    <path d="M 71.732925 356.112589 
L 72 348.918898 
" clip-path="url(#p4561f500d8)" style="fill: #d3d3d3; opacity: 0.4"/>
   </g>
   <g id="patch_11">
    <path d="M 72.267075 356.112589 
L 72 348.918898 
" clip-path="url(#p4561f500d8)" style="fill: #d3d3d3; opacity: 0.4"/>
   </g>
   <g id="patch_12">
    <path d="M 294.932925 356.112589 
L 295.2 348.918898 
" clip-path="url(#p4561f500d8)" style="fill: #d3d3d3; opacity: 0.4"/>
   </g>
   <g id="patch_13">
    <path d="M 295.467075 356.112589 
L 295.2 348.918898 
" clip-path="url(#p4561f500d8)" style="fill: #d3d3d3; opacity: 0.4"/>
   </g>
   <g id="patch_14">
    <path d="M 518.132925 356.112589 
L 518.4 348.918898 
" clip-path="url(#p4561f500d8)" style="fill: #d3d3d3; opacity: 0.4"/>
   </g>
   <g id="patch_15">
    <path d="M 518.667075 356.112589 
L 518.4 348.918898 
" clip-path="url(#p4561f500d8)" style="fill: #d3d3d3; opacity: 0.4"/>
   </g>
   <g id="patch_16">
    <path d="M 72 272.754213 
L 79.448328 272.433483 
" clip-path="url(#p4561f500d8)" style="fill: #d3d3d3; opacity: 0.4"/>
   </g>
   <g id="patch_17">
    <path d="M 183.332925 175.905008 
L 183.6 168.711317 
" clip-path="url(#p4561f500d8)" style="fill: #d3d3d3; opacity: 0.4"/>
   </g>
   <g id="patch_18">
    <path d="M 183.867075 175.905008 
L 183.6 168.711317 
" clip-path="url(#p4561f500d8)" style="fill: #d3d3d3; opacity: 0.4"/>
   </g>
   <g id="patch_19">
    <path d="M 406.532925 175.905008 
L 406.8 168.711317 
" clip-path="url(#p4561f500d8)" style="fill: #d3d3d3; opacity: 0.4"/>
   </g>
   <g id="patch_20">
    <path d="M 407.067075 175.905008 
L 406.8 168.711317 
" clip-path="url(#p4561f500d8)" style="fill: #d3d3d3; opacity: 0.4"/>
   </g>
   <g id="line2d_1">
    <path d="M -1 251.41671 
L 5.148037 253.606031 
L 12.206216 256.865904 
L 19.071592 260.414725 
L 24.509484 263.86144 
L 29.847737 267.475622 
L 34.893268 271.563449 
L 39.779042 275.786416 
L 44.031595 280.158645 
L 48.165889 284.654101 
L 51.823547 289.40058 
L 55.33263 294.220311 
L 59.16209 300.470532 
L 62.518846 306.95264 
L 65.386832 313.635611 
L 67.752321 320.487457 
L 69.603991 327.475385 
L 70.932979 334.565948 
L 71.732925 341.725207 
L 72 348.918898 
L 72.267075 341.725207 
L 73.067021 334.565948 
L 74.396009 327.475385 
L 76.247679 320.487457 
L 78.613168 313.635611 
L 81.481154 306.95264 
L 84.83791 300.470532 
L 88.66737 294.220311 
L 92.176453 289.40058 
L 95.834111 284.654101 
L 99.968405 280.158645 
L 104.220958 275.786416 
L 109.106732 271.563449 
L 114.152263 267.475622 
L 119.490516 263.86144 
L 124.928408 260.414725 
L 131.793784 256.865904 
L 138.851963 253.606031 
L 146.309969 250.950229 
L 153.869235 248.635982 
L 161.238956 247.076308 
L 168.698785 245.807639 
L 176.151672 245.196732 
L 183.6 244.876003 
L 191.048328 245.196732 
L 198.501215 245.807639 
L 205.961044 247.076308 
L 213.330765 248.635982 
L 220.890031 250.950229 
L 228.348037 253.606031 
L 235.406216 256.865904 
L 242.271592 260.414725 
L 247.709484 263.86144 
L 253.047737 267.475622 
L 258.093268 271.563449 
L 262.979042 275.786416 
L 267.231595 280.158645 
L 271.365889 284.654101 
L 275.023547 289.40058 
L 278.53263 294.220311 
L 282.36209 300.470532 
L 285.718846 306.95264 
L 288.586832 313.635611 
L 290.952321 320.487457 
L 292.803991 327.475385 
L 294.132979 334.565948 
L 294.932925 341.725207 
L 295.2 348.918898 
L 295.467075 341.725207 
L 296.267021 334.565948 
L 297.596009 327.475385 
L 299.447679 320.487457 
L 301.813168 313.635611 
L 304.681154 306.95264 
L 308.03791 300.470532 
L 311.86737 294.220311 
L 315.376453 289.40058 
L 319.034111 284.654101 
L 323.168405 280.158645 
L 327.420958 275.786416 
L 332.306732 271.563449 
L 337.352263 267.475622 
L 342.690516 263.86144 
L 348.128408 260.414725 
L 354.993784 256.865904 
L 362.051963 253.606031 
L 369.509969 250.950229 
L 377.069235 248.635982 
L 384.438956 247.076308 
L 391.898785 245.807639 
L 399.351672 245.196732 
L 406.8 244.876003 
L 414.248328 245.196732 
L 421.701215 245.807639 
L 429.161044 247.076308 
L 436.530765 248.635982 
L 444.090031 250.950229 
L 451.548037 253.606031 
L 458.606216 256.865904 
L 465.471592 260.414725 
L 470.909484 263.86144 
L 476.247737 267.475622 
L 481.293268 271.563449 
L 486.179042 275.786416 
L 490.431595 280.158645 
L 494.565889 284.654101 
L 498.223547 289.40058 
L 501.73263 294.220311 
L 505.56209 300.470532 
L 508.918846 306.95264 
L 511.786832 313.635611 
L 514.152321 320.487457 
L 516.003991 327.475385 
L 517.332979 334.565948 
L 518.132925 341.725207 
L 518.4 348.918898 
L 518.667075 341.725207 
L 519.467021 334.565948 
L 520.796009 327.475385 
L 522.647679 320.487457 
L 525.013168 313.635611 
L 527.881154 306.95264 
L 531.23791 300.470532 
L 535.06737 294.220311 
L 538.576453 289.40058 
L 542.234111 284.654101 
L 546.368405 280.158645 
L 550.620958 275.786416 
L 555.506732 271.563449 
L 560.552263 267.475622 
L 565.890516 263.86144 
L 571.328408 260.414725 
L 577 257.48299 
M 577 440.354807 
L 571.328408 437.423071 
L 565.890516 433.976357 
L 560.552263 430.362174 
L 555.506732 426.274348 
L 550.620958 422.051381 
L 546.368405 417.679152 
L 542.234111 413.183695 
L 538.576453 408.437217 
L 535.06737 403.617485 
L 531.23791 397.367265 
L 527.881154 390.885157 
L 525.013168 384.202186 
L 522.647679 377.350339 
L 520.796009 370.362411 
L 519.467021 363.271849 
L 518.667075 356.112589 
L 518.667075 356.112589 
" clip-path="url(#p4561f500d8)" style="fill: none; stroke: #000000; stroke-opacity: 0.5; stroke-width: 2; stroke-linecap: square"/>
   </g>
   <g id="line2d_2">
    <path d="M 518.132925 356.112589 
L 517.332979 363.271849 
L 516.003991 370.362411 
L 514.152321 377.350339 
L 511.786832 384.202186 
L 508.918846 390.885157 
L 505.56209 397.367265 
L 501.73263 403.617485 
L 498.223547 408.437217 
L 494.565889 413.183695 
L 490.431595 417.679152 
L 486.179042 422.051381 
L 481.293268 426.274348 
L 476.247737 430.362174 
L 470.909484 433.976357 
L 465.471592 437.423071 
L 458.606216 440.971893 
L 451.548037 444.231765 
L 444.090031 446.887567 
L 436.530765 449.201815 
L 429.161044 450.761488 
L 421.701215 452.030158 
L 414.248328 452.641064 
L 406.8 452.961794 
L 399.351672 452.641064 
L 391.898785 452.030158 
L 384.438956 450.761488 
L 377.069235 449.201815 
L 369.509969 446.887567 
L 362.051963 444.231765 
L 354.993784 440.971893 
L 348.128408 437.423071 
L 342.690516 433.976357 
L 337.352263 430.362174 
L 332.306732 426.274348 
L 327.420958 422.051381 
L 323.168405 417.679152 
L 319.034111 413.183695 
L 315.376453 408.437217 
L 311.86737 403.617485 
L 308.03791 397.367265 
L 304.681154 390.885157 
L 301.813168 384.202186 
L 299.447679 377.350339 
L 297.596009 370.362411 
L 296.267021 363.271849 
L 295.467075 356.112589 
" clip-path="url(#p4561f500d8)" style="fill: none; stroke: #000000; stroke-opacity: 0.5; stroke-width: 2; stroke-linecap: square"/>
   </g>
   <g id="line2d_3">
    <path d="M 294.932925 356.112589 
L 294.132979 363.271849 
L 292.803991 370.362411 
L 290.952321 377.350339 
L 288.586832 384.202186 
L 285.718846 390.885157 
L 282.36209 397.367265 
L 278.53263 403.617485 
L 275.023547 408.437217 
L 271.365889 413.183695 
L 267.231595 417.679152 
L 262.979042 422.051381 
L 258.093268 426.274348 
L 253.047737 430.362174 
L 247.709484 433.976357 
L 242.271592 437.423071 
L 235.406216 440.971893 
L 228.348037 444.231765 
L 220.890031 446.887567 
L 213.330765 449.201815 
L 205.961044 450.761488 
L 198.501215 452.030158 
L 191.048328 452.641064 
L 183.6 452.961794 
L 176.151672 452.641064 
L 168.698785 452.030158 
L 161.238956 450.761488 
L 153.869235 449.201815 
L 146.309969 446.887567 
L 138.851963 444.231765 
L 131.793784 440.971893 
L 124.928408 437.423071 
L 119.490516 433.976357 
L 114.152263 430.362174 
L 109.106732 426.274348 
L 104.220958 422.051381 
L 99.968405 417.679152 
L 95.834111 413.183695 
L 92.176453 408.437217 
L 88.66737 403.617485 
L 84.83791 397.367265 
L 81.481154 390.885157 
L 78.613168 384.202186 
L 76.247679 377.350339 
L 74.396009 370.362411 
L 73.067021 363.271849 
L 72.267075 356.112589 
" clip-path="url(#p4561f500d8)" style="fill: none; stroke: #000000; stroke-opacity: 0.5; stroke-width: 2; stroke-linecap: square"/>
   </g>
   <g id="line2d_4">
    <path d="M 71.732925 356.112589 
L 70.932979 363.271849 
L 69.603991 370.362411 
L 67.752321 377.350339 
L 65.386832 384.202186 
L 62.518846 390.885157 
L 59.16209 397.367265 
L 55.33263 403.617485 
L 51.823547 408.437217 
L 48.165889 413.183695 
L 44.031595 417.679152 
L 39.779042 422.051381 
L 34.893268 426.274348 
L 29.847737 430.362174 
L 24.509484 433.976357 
L 19.071592 437.423071 
L 12.206216 440.971893 
L 5.148037 444.231765 
L -1 446.421086 
" clip-path="url(#p4561f500d8)" style="fill: none; stroke: #000000; stroke-opacity: 0.5; stroke-width: 2; stroke-linecap: square"/>
   </g>
   <g id="line2d_5">
    <path d="M 72 272.754213 
L 64.551672 272.433483 
L 57.098785 271.822577 
L 49.638956 270.553907 
L 42.269235 268.994234 
L 34.709969 266.679986 
L 27.251963 264.024184 
L 20.193784 260.764312 
L 13.328408 257.21549 
L 7.890516 253.768776 
L 2.552263 250.154593 
L -1 247.276594 
M -1 90.14604 
L 2.552263 87.268041 
L 7.890516 83.653859 
L 13.328408 80.207144 
L 20.193784 76.658323 
L 27.251963 73.39845 
L 34.709969 70.742648 
L 42.269235 68.4284 
L 49.638956 66.868727 
L 57.098785 65.600058 
L 64.551672 64.989151 
L 72 64.668422 
L 79.448328 64.989151 
L 86.901215 65.600058 
L 94.361044 66.868727 
L 101.730765 68.4284 
L 109.290031 70.742648 
L 116.748037 73.39845 
L 123.806216 76.658323 
L 130.671592 80.207144 
L 136.109484 83.653859 
L 141.447737 87.268041 
L 146.493268 91.355868 
L 151.379042 95.578834 
L 155.631595 99.951064 
L 159.765889 104.44652 
L 163.423547 109.192999 
L 166.93263 114.01273 
L 170.76209 120.262951 
L 174.118846 126.745059 
L 176.986832 133.42803 
L 179.352321 140.279876 
L 181.203991 147.267804 
L 182.532979 154.358366 
L 183.332925 161.517626 
L 183.6 168.711317 
L 183.867075 161.517626 
L 184.667021 154.358366 
L 185.996009 147.267804 
L 187.847679 140.279876 
L 190.213168 133.42803 
L 193.081154 126.745059 
L 196.43791 120.262951 
L 200.26737 114.01273 
L 203.776453 109.192999 
L 207.434111 104.44652 
L 211.568405 99.951064 
L 215.820958 95.578834 
L 220.706732 91.355868 
L 225.752263 87.268041 
L 231.090516 83.653859 
L 236.528408 80.207144 
L 243.393784 76.658323 
L 250.451963 73.39845 
L 257.909969 70.742648 
L 265.469235 68.4284 
L 272.838956 66.868727 
L 280.298785 65.600058 
L 287.751672 64.989151 
L 295.2 64.668422 
L 302.648328 64.989151 
L 310.101215 65.600058 
L 317.561044 66.868727 
L 324.930765 68.4284 
L 332.490031 70.742648 
L 339.948037 73.39845 
L 347.006216 76.658323 
L 353.871592 80.207144 
L 359.309484 83.653859 
L 364.647737 87.268041 
L 369.693268 91.355868 
L 374.579042 95.578834 
L 378.831595 99.951064 
L 382.965889 104.44652 
L 386.623547 109.192999 
L 390.13263 114.01273 
L 393.96209 120.262951 
L 397.318846 126.745059 
L 400.186832 133.42803 
L 402.552321 140.279876 
L 404.403991 147.267804 
L 405.732979 154.358366 
L 406.532925 161.517626 
L 406.8 168.711317 
L 407.067075 161.517626 
L 407.867021 154.358366 
L 409.196009 147.267804 
L 411.047679 140.279876 
L 413.413168 133.42803 
L 416.281154 126.745059 
L 419.63791 120.262951 
L 423.46737 114.01273 
L 426.976453 109.192999 
L 430.634111 104.44652 
L 434.768405 99.951064 
L 439.020958 95.578834 
L 443.906732 91.355868 
L 448.952263 87.268041 
L 454.290516 83.653859 
L 459.728408 80.207144 
L 466.593784 76.658323 
L 473.651963 73.39845 
L 481.109969 70.742648 
L 488.669235 68.4284 
L 496.038956 66.868727 
L 503.498785 65.600058 
L 510.951672 64.989151 
L 518.4 64.668422 
L 525.848328 64.989151 
L 533.301215 65.600058 
L 540.761044 66.868727 
L 548.130765 68.4284 
L 555.690031 70.742648 
L 563.148037 73.39845 
L 570.206216 76.658323 
L 577 80.170137 
M 577 257.252497 
L 570.206216 260.764312 
L 563.148037 264.024184 
L 555.690031 266.679986 
L 548.130765 268.994234 
L 540.761044 270.553907 
L 533.301215 271.822577 
L 525.848328 272.433483 
L 518.4 272.754213 
L 510.951672 272.433483 
L 503.498785 271.822577 
L 496.038956 270.553907 
L 488.669235 268.994234 
L 481.109969 266.679986 
L 473.651963 264.024184 
L 466.593784 260.764312 
L 459.728408 257.21549 
L 454.290516 253.768776 
L 448.952263 250.154593 
L 443.906732 246.066767 
L 439.020958 241.8438 
L 434.768405 237.471571 
L 430.634111 232.976114 
L 426.976453 228.229636 
L 423.46737 223.409904 
L 419.63791 217.159684 
L 416.281154 210.677575 
L 413.413168 203.994605 
L 411.047679 197.142758 
L 409.196009 190.15483 
L 407.867021 183.064268 
L 407.067075 175.905008 
L 407.067075 175.905008 
" clip-path="url(#p4561f500d8)" style="fill: none; stroke: #000000; stroke-opacity: 0.5; stroke-width: 2; stroke-linecap: square"/>
   </g>
   <g id="line2d_6">
    <path d="M 406.532925 175.905008 
L 405.732979 183.064268 
L 404.403991 190.15483 
L 402.552321 197.142758 
L 400.186832 203.994605 
L 397.318846 210.677575 
L 393.96209 217.159684 
L 390.13263 223.409904 
L 386.623547 228.229636 
L 382.965889 232.976114 
L 378.831595 237.471571 
L 374.579042 241.8438 
L 369.693268 246.066767 
L 364.647737 250.154593 
L 359.309484 253.768776 
L 353.871592 257.21549 
L 347.006216 260.764312 
L 339.948037 264.024184 
L 332.490031 266.679986 
L 324.930765 268.994234 
L 317.561044 270.553907 
L 310.101215 271.822577 
L 302.648328 272.433483 
L 295.2 272.754213 
L 287.751672 272.433483 
L 280.298785 271.822577 
L 272.838956 270.553907 
L 265.469235 268.994234 
L 257.909969 266.679986 
L 250.451963 264.024184 
L 243.393784 260.764312 
L 236.528408 257.21549 
L 231.090516 253.768776 
L 225.752263 250.154593 
L 220.706732 246.066767 
L 215.820958 241.8438 
L 211.568405 237.471571 
L 207.434111 232.976114 
L 203.776453 228.229636 
L 200.26737 223.409904 
L 196.43791 217.159684 
L 193.081154 210.677575 
L 190.213168 203.994605 
L 187.847679 197.142758 
L 185.996009 190.15483 
L 184.667021 183.064268 
L 183.867075 175.905008 
" clip-path="url(#p4561f500d8)" style="fill: none; stroke: #000000; stroke-opacity: 0.5; stroke-width: 2; stroke-linecap: square"/>
   </g>
   <g id="line2d_7">
    <path d="M 183.332925 175.905008 
L 182.532979 183.064268 
L 181.203991 190.15483 
L 179.352321 197.142758 
L 176.986832 203.994605 
L 174.118846 210.677575 
L 170.76209 217.159684 
L 166.93263 223.409904 
L 163.423547 228.229636 
L 159.765889 232.976114 
L 155.631595 237.471571 
L 151.379042 241.8438 
L 146.493268 246.066767 
L 141.447737 250.154593 
L 136.109484 253.768776 
L 130.671592 257.21549 
L 123.806216 260.764312 
L 116.748037 264.024184 
L 109.290031 266.679986 
L 101.730765 268.994234 
L 94.361044 270.553907 
L 86.901215 271.822577 
L 79.448328 272.433483 
" clip-path="url(#p4561f500d8)" style="fill: none; stroke: #000000; stroke-opacity: 0.5; stroke-width: 2; stroke-linecap: square"/>
   </g>
   <g id="line2d_8">
    <path clip-path="url(#p4561f500d8)" style="fill: none; stroke: #000000; stroke-opacity: 0.5; stroke-width: 2; stroke-linecap: square"/>
   </g>
   <g id="line2d_9">
    <path d="M 71.732925 356.112589 
L 72 348.918898 
" clip-path="url(#p4561f500d8)" style="fill: none; stroke: #000000; stroke-opacity: 0.5; stroke-width: 2; stroke-linecap: square"/>
   </g>
   <g id="line2d_10">
    <path d="M 72.267075 356.112589 
L 72 348.918898 
" clip-path="url(#p4561f500d8)" style="fill: none; stroke: #000000; stroke-opacity: 0.5; stroke-width: 2; stroke-linecap: square"/>
   </g>
   <g id="line2d_11">
    <path d="M 294.932925 356.112589 
L 295.2 348.918898 
" clip-path="url(#p4561f500d8)" style="fill: none; stroke: #000000; stroke-opacity: 0.5; stroke-width: 2; stroke-linecap: square"/>
   </g>
   <g id="line2d_12">
    <path d="M 295.467075 356.112589 
L 295.2 348.918898 
" clip-path="url(#p4561f500d8)" style="fill: none; stroke: #000000; stroke-opacity: 0.5; stroke-width: 2; stroke-linecap: square"/>
   </g>
   <g id="line2d_13">
    <path d="M 518.132925 356.112589 
L 518.4 348.918898 
" clip-path="url(#p4561f500d8)" style="fill: none; stroke: #000000; stroke-opacity: 0.5; stroke-width: 2; stroke-linecap: square"/>
   </g>
   <g id="line2d_14">
    <path d="M 518.667075 356.112589 
L 518.4 348.918898 
" clip-path="url(#p4561f500d8)" style="fill: none; stroke: #000000; stroke-opacity: 0.5; stroke-width: 2; stroke-linecap: square"/>
   </g>
   <g id="line2d_15">
    <path d="M 72 272.754213 
L 79.448328 272.433483 
" clip-path="url(#p4561f500d8)" style="fill: none; stroke: #000000; stroke-opacity: 0.5; stroke-width: 2; stroke-linecap: square"/>
   </g>
   <g id="line2d_16">
    <path d="M 183.332925 175.905008 
L 183.6 168.711317 
" clip-path="url(#p4561f500d8)" style="fill: none; stroke: #000000; stroke-opacity: 0.5; stroke-width: 2; stroke-linecap: square"/>
   </g>
   <g id="line2d_17">
    <path d="M 183.867075 175.905008 
L 183.6 168.711317 
" clip-path="url(#p4561f500d8)" style="fill: none; stroke: #000000; stroke-opacity: 0.5; stroke-width: 2; stroke-linecap: square"/>
   </g>
   <g id="line2d_18">
    <path d="M 406.532925 175.905008 
L 406.8 168.711317 
" clip-path="url(#p4561f500d8)" style="fill: none; stroke: #000000; stroke-opacity: 0.5; stroke-width: 2; stroke-linecap: square"/>
   </g>
   <g id="line2d_19">
    <path d="M 407.067075 175.905008 
L 406.8 168.711317 
" clip-path="url(#p4561f500d8)" style="fill: none; stroke: #000000; stroke-opacity: 0.5; stroke-width: 2; stroke-linecap: square"/>
   </g>
   <g id="line2d_20">
    <path d="M 206.378534 107.474005 
L 206.378534 107.470104 
L 206.378534 61.936601 
" clip-path="url(#p4561f500d8)" style="fill: none; stroke: #0000ff; stroke-opacity: 0.8; stroke-width: 4; stroke-linecap: square"/>
   </g>
   <g id="line2d_21">
    <path d="M 462.6 106.23625 
L 439.276218 116.503418 
L 462.6 114.899828 
L 206.379071 107.474413 
L 206.378342 107.473841 
L 206.378307 107.473814 
L 206.378335 107.473904 
L 206.378429 107.473952 
L 206.378479 107.473977 
L 206.378534 107.474005 
L 206.378421 107.47386 
L 206.377785 107.473987 
L 206.377108 107.473461 
L 206.378751 107.473557 
L 206.377544 107.473408 
L 206.378332 107.473837 
L 206.378422 107.473795 
L 206.378454 107.473903 
L 206.37843 107.473748 
L 206.377988 107.473607 
L 206.37848 107.473262 
L 206.378478 107.473263 
L 206.378354 107.473409 
L 206.37825 107.473601 
L 206.378293 107.473527 
" clip-path="url(#p4561f500d8)" style="fill: none; stroke: #ff0000; stroke-opacity: 0.8; stroke-width: 2; stroke-linecap: square"/>
   </g>
  </g>
 </g>
 <defs>
  <clipPath id="p4561f500d8">
   <rect x="72" y="60.48" width="446.4" height="388.08"/>
  </clipPath>
 </defs>
</svg>
